<mxfile host="app.diagrams.net" modified="2024-02-03T07:50:35.526Z" agent="Mozilla/5.0 (Macintosh; Intel Mac OS X 10_15_7) AppleWebKit/605.1.15 (KHTML, like Gecko) Version/17.3 Safari/605.1.15" etag="BmVgAHkwlpHhAojtf-yI" version="23.1.1" type="device">
  <diagram id="CIYdKKqNAJBwTVAFqt9w" name="Page-1">
    <mxGraphModel dx="1432" dy="802" grid="1" gridSize="10" guides="1" tooltips="1" connect="1" arrows="1" fold="1" page="1" pageScale="1" pageWidth="1169" pageHeight="1654" math="0" shadow="0">
      <root>
        <mxCell id="0" />
        <mxCell id="1" parent="0" />
        <mxCell id="LQXSZ3eL3IMsYw5GJXrv-38" value="" style="rounded=0;whiteSpace=wrap;html=1;fillColor=#ffe6cc;strokeColor=#d79b00;" vertex="1" parent="1">
          <mxGeometry x="300" y="110" width="490" height="560" as="geometry" />
        </mxCell>
        <mxCell id="LQXSZ3eL3IMsYw5GJXrv-56" value="" style="rounded=0;whiteSpace=wrap;html=1;fillColor=#e1d5e7;strokeColor=#9673a6;" vertex="1" parent="1">
          <mxGeometry x="340" y="258" width="440" height="402" as="geometry" />
        </mxCell>
        <mxCell id="LQXSZ3eL3IMsYw5GJXrv-55" value="" style="rounded=0;whiteSpace=wrap;html=1;fillColor=#e1d5e7;strokeColor=#9673a6;" vertex="1" parent="1">
          <mxGeometry x="340" y="160" width="440" height="90" as="geometry" />
        </mxCell>
        <mxCell id="LQXSZ3eL3IMsYw5GJXrv-49" value="" style="rounded=0;whiteSpace=wrap;html=1;" vertex="1" parent="1">
          <mxGeometry x="930" y="240" width="190" height="150" as="geometry" />
        </mxCell>
        <mxCell id="LQXSZ3eL3IMsYw5GJXrv-37" value="" style="endArrow=none;dashed=1;html=1;rounded=0;entryX=0.46;entryY=1.04;entryDx=0;entryDy=0;entryPerimeter=0;exitX=0.48;exitY=-0.08;exitDx=0;exitDy=0;exitPerimeter=0;" edge="1" parent="1" source="LQXSZ3eL3IMsYw5GJXrv-2" target="LQXSZ3eL3IMsYw5GJXrv-2">
          <mxGeometry width="50" height="50" relative="1" as="geometry">
            <mxPoint x="243" y="260" as="sourcePoint" />
            <mxPoint x="280" y="640" as="targetPoint" />
            <Array as="points">
              <mxPoint x="240" y="90" />
              <mxPoint x="820" y="90" />
              <mxPoint x="820" y="680" />
              <mxPoint x="240" y="680" />
            </Array>
          </mxGeometry>
        </mxCell>
        <mxCell id="0QP-IHk7IyoN1cNLL2Y5-26" value="" style="endArrow=none;dashed=1;html=1;dashPattern=1 3;strokeWidth=2;rounded=0;" parent="1" edge="1">
          <mxGeometry width="50" height="50" relative="1" as="geometry">
            <mxPoint x="192" y="72" as="sourcePoint" />
            <mxPoint x="192" y="70" as="targetPoint" />
            <Array as="points">
              <mxPoint x="1140" y="70" />
              <mxPoint x="1140" y="700" />
              <mxPoint x="190" y="700" />
            </Array>
          </mxGeometry>
        </mxCell>
        <mxCell id="0QP-IHk7IyoN1cNLL2Y5-2" value="tododb" style="aspect=fixed;html=1;points=[];align=center;image;fontSize=12;image=img/lib/azure2/databases/Azure_Database_PostgreSQL_Server.svg;" parent="1" vertex="1">
          <mxGeometry x="1061" y="300.5" width="34.13" height="45.5" as="geometry" />
        </mxCell>
        <mxCell id="0QP-IHk7IyoN1cNLL2Y5-3" value="Application Insights" style="aspect=fixed;html=1;points=[];align=center;image;fontSize=12;image=img/lib/azure2/devops/Application_Insights.svg;" parent="1" vertex="1">
          <mxGeometry x="877.08" y="470" width="34.92" height="50" as="geometry" />
        </mxCell>
        <mxCell id="0QP-IHk7IyoN1cNLL2Y5-4" value="KeyVault" style="aspect=fixed;html=1;points=[];align=center;image;fontSize=12;image=img/lib/azure2/security/Key_Vaults.svg;" parent="1" vertex="1">
          <mxGeometry x="991" y="121.71000000000001" width="68" height="68" as="geometry" />
        </mxCell>
        <mxCell id="0QP-IHk7IyoN1cNLL2Y5-5" value="LogAnalytics (Central)" style="sketch=0;aspect=fixed;html=1;points=[];align=center;image;fontSize=12;image=img/lib/mscae/Log_Analytics_Workspaces.svg;" parent="1" vertex="1">
          <mxGeometry x="1030" y="470" width="50" height="50" as="geometry" />
        </mxCell>
        <mxCell id="0QP-IHk7IyoN1cNLL2Y5-9" value="" style="aspect=fixed;html=1;points=[];align=center;image;fontSize=12;image=img/lib/azure2/general/Browser.svg;" parent="1" vertex="1">
          <mxGeometry x="57" y="246" width="65" height="52" as="geometry" />
        </mxCell>
        <mxCell id="0QP-IHk7IyoN1cNLL2Y5-10" value="" style="aspect=fixed;html=1;points=[];align=center;image;fontSize=12;image=img/lib/azure2/general/Browser.svg;" parent="1" vertex="1">
          <mxGeometry x="67" y="256" width="65" height="52" as="geometry" />
        </mxCell>
        <mxCell id="0QP-IHk7IyoN1cNLL2Y5-11" value="" style="aspect=fixed;html=1;points=[];align=center;image;fontSize=12;image=img/lib/azure2/general/Browser.svg;" parent="1" vertex="1">
          <mxGeometry x="77" y="266" width="65" height="52" as="geometry" />
        </mxCell>
        <mxCell id="0QP-IHk7IyoN1cNLL2Y5-12" value="" style="aspect=fixed;html=1;points=[];align=center;image;fontSize=12;image=img/lib/azure2/general/Browser.svg;" parent="1" vertex="1">
          <mxGeometry x="87" y="276" width="65" height="52" as="geometry" />
        </mxCell>
        <mxCell id="0QP-IHk7IyoN1cNLL2Y5-13" value="" style="endArrow=classic;html=1;rounded=0;exitX=1.015;exitY=0.263;exitDx=0;exitDy=0;exitPerimeter=0;entryX=0;entryY=0.48;entryDx=0;entryDy=0;entryPerimeter=0;" parent="1" source="0QP-IHk7IyoN1cNLL2Y5-12" target="LQXSZ3eL3IMsYw5GJXrv-2" edge="1">
          <mxGeometry width="50" height="50" relative="1" as="geometry">
            <mxPoint x="170" y="300" as="sourcePoint" />
            <mxPoint x="210" y="290" as="targetPoint" />
          </mxGeometry>
        </mxCell>
        <mxCell id="0QP-IHk7IyoN1cNLL2Y5-14" value="" style="endArrow=classic;html=1;rounded=0;exitX=0.995;exitY=0.63;exitDx=0;exitDy=0;exitPerimeter=0;entryX=0;entryY=0.5;entryDx=0;entryDy=0;" parent="1" source="LQXSZ3eL3IMsYw5GJXrv-21" target="o04dppOLbAU1CwW2dDpO-1" edge="1">
          <mxGeometry width="50" height="50" relative="1" as="geometry">
            <mxPoint x="759" y="303" as="sourcePoint" />
            <mxPoint x="1030" y="301" as="targetPoint" />
            <Array as="points">
              <mxPoint x="840" y="384" />
              <mxPoint x="840" y="300" />
            </Array>
          </mxGeometry>
        </mxCell>
        <mxCell id="0QP-IHk7IyoN1cNLL2Y5-15" value="" style="shape=actor;whiteSpace=wrap;html=1;" parent="1" vertex="1">
          <mxGeometry x="64" y="277" width="40" height="60" as="geometry" />
        </mxCell>
        <mxCell id="0QP-IHk7IyoN1cNLL2Y5-16" value="" style="shape=actor;whiteSpace=wrap;html=1;" parent="1" vertex="1">
          <mxGeometry x="74" y="287" width="40" height="60" as="geometry" />
        </mxCell>
        <mxCell id="0QP-IHk7IyoN1cNLL2Y5-17" value="" style="shape=actor;whiteSpace=wrap;html=1;" parent="1" vertex="1">
          <mxGeometry x="84" y="297" width="40" height="60" as="geometry" />
        </mxCell>
        <mxCell id="0QP-IHk7IyoN1cNLL2Y5-18" value="" style="shape=actor;whiteSpace=wrap;html=1;" parent="1" vertex="1">
          <mxGeometry x="94" y="307" width="40" height="60" as="geometry" />
        </mxCell>
        <mxCell id="0QP-IHk7IyoN1cNLL2Y5-19" value="" style="shape=actor;whiteSpace=wrap;html=1;" parent="1" vertex="1">
          <mxGeometry x="104" y="317" width="40" height="60" as="geometry" />
        </mxCell>
        <mxCell id="0QP-IHk7IyoN1cNLL2Y5-22" value="Browser users" style="text;html=1;align=center;verticalAlign=middle;resizable=0;points=[];autosize=1;strokeColor=none;fillColor=none;" parent="1" vertex="1">
          <mxGeometry x="61" y="370" width="100" height="30" as="geometry" />
        </mxCell>
        <mxCell id="0QP-IHk7IyoN1cNLL2Y5-30" value="Azure" style="text;strokeColor=none;fillColor=none;html=1;fontSize=24;fontStyle=1;verticalAlign=middle;align=center;" parent="1" vertex="1">
          <mxGeometry x="1050.5" y="70" width="90" height="40" as="geometry" />
        </mxCell>
        <mxCell id="gKN0slglhCB6e-M4ENdB-1" value="AKS Deployment" style="text;strokeColor=none;fillColor=none;html=1;fontSize=24;fontStyle=1;verticalAlign=middle;align=center;" parent="1" vertex="1">
          <mxGeometry x="3" y="20" width="427" height="30" as="geometry" />
        </mxCell>
        <mxCell id="OqzE98QxFuoe7ZCpbJcY-1" value="GitHub Repo (src + CI/CD)" style="aspect=fixed;html=1;points=[];align=center;image;fontSize=12;image=img/lib/azure2/general/Branch.svg;" parent="1" vertex="1">
          <mxGeometry x="523" y="712" width="72" height="72" as="geometry" />
        </mxCell>
        <mxCell id="o04dppOLbAU1CwW2dDpO-2" value="" style="endArrow=classic;html=1;rounded=0;exitX=0.995;exitY=0.63;exitDx=0;exitDy=0;exitPerimeter=0;" parent="1" target="o04dppOLbAU1CwW2dDpO-1" edge="1" source="LQXSZ3eL3IMsYw5GJXrv-19">
          <mxGeometry width="50" height="50" relative="1" as="geometry">
            <mxPoint x="807" y="790" as="sourcePoint" />
            <mxPoint x="1034" y="790" as="targetPoint" />
          </mxGeometry>
        </mxCell>
        <mxCell id="o04dppOLbAU1CwW2dDpO-1" value="&lt;font style=&quot;font-size: 10px;&quot;&gt;PGSQL&lt;br&gt;Firewall&lt;br&gt;(Azure IPs)&lt;/font&gt;" style="image;html=1;image=img/lib/clip_art/networking/Firewall_02_128x128.png" parent="1" vertex="1">
          <mxGeometry x="920" y="280" width="28" height="44" as="geometry" />
        </mxCell>
        <mxCell id="LQXSZ3eL3IMsYw5GJXrv-1" value="" style="image;aspect=fixed;html=1;points=[];align=center;fontSize=12;image=img/lib/azure2/containers/Kubernetes_Services.svg;" vertex="1" parent="1">
          <mxGeometry x="694" y="116" width="90" height="79.42" as="geometry" />
        </mxCell>
        <mxCell id="LQXSZ3eL3IMsYw5GJXrv-2" value="" style="image;sketch=0;aspect=fixed;html=1;points=[];align=center;fontSize=12;image=img/lib/mscae/Application_Gateway.svg;" vertex="1" parent="1">
          <mxGeometry x="219" y="266" width="50" height="50" as="geometry" />
        </mxCell>
        <mxCell id="LQXSZ3eL3IMsYw5GJXrv-3" value="GitHub Repo (config)" style="aspect=fixed;html=1;points=[];align=center;image;fontSize=12;image=img/lib/azure2/general/Branch.svg;" vertex="1" parent="1">
          <mxGeometry x="379" y="712" width="72" height="72" as="geometry" />
        </mxCell>
        <mxCell id="LQXSZ3eL3IMsYw5GJXrv-6" value="" style="aspect=fixed;sketch=0;html=1;dashed=0;whitespace=wrap;fillColor=#2875E2;strokeColor=#ffffff;points=[[0.005,0.63,0],[0.1,0.2,0],[0.9,0.2,0],[0.5,0,0],[0.995,0.63,0],[0.72,0.99,0],[0.5,1,0],[0.28,0.99,0]];shape=mxgraph.kubernetes.icon2;kubernetesLabel=1;prIcon=pod" vertex="1" parent="1">
          <mxGeometry x="376" y="180" width="50" height="48" as="geometry" />
        </mxCell>
        <mxCell id="LQXSZ3eL3IMsYw5GJXrv-7" value="Todo App" style="text;html=1;strokeColor=none;fillColor=none;align=center;verticalAlign=middle;whiteSpace=wrap;rounded=0;" vertex="1" parent="1">
          <mxGeometry x="371" y="219" width="60" height="30" as="geometry" />
        </mxCell>
        <mxCell id="LQXSZ3eL3IMsYw5GJXrv-9" value="" style="aspect=fixed;sketch=0;html=1;dashed=0;whitespace=wrap;fillColor=#2875E2;strokeColor=#ffffff;points=[[0.005,0.63,0],[0.1,0.2,0],[0.9,0.2,0],[0.5,0,0],[0.995,0.63,0],[0.72,0.99,0],[0.5,1,0],[0.28,0.99,0]];shape=mxgraph.kubernetes.icon2;kubernetesLabel=1;prIcon=pod" vertex="1" parent="1">
          <mxGeometry x="376" y="270" width="50" height="48" as="geometry" />
        </mxCell>
        <mxCell id="LQXSZ3eL3IMsYw5GJXrv-10" value="Pet Clinic API" style="text;html=1;strokeColor=none;fillColor=none;align=center;verticalAlign=middle;whiteSpace=wrap;rounded=0;" vertex="1" parent="1">
          <mxGeometry x="371" y="316" width="60" height="30" as="geometry" />
        </mxCell>
        <mxCell id="LQXSZ3eL3IMsYw5GJXrv-11" value="" style="aspect=fixed;sketch=0;html=1;dashed=0;whitespace=wrap;fillColor=#2875E2;strokeColor=#ffffff;points=[[0.005,0.63,0],[0.1,0.2,0],[0.9,0.2,0],[0.5,0,0],[0.995,0.63,0],[0.72,0.99,0],[0.5,1,0],[0.28,0.99,0]];shape=mxgraph.kubernetes.icon2;kubernetesLabel=1;prIcon=pod" vertex="1" parent="1">
          <mxGeometry x="376" y="386" width="50" height="48" as="geometry" />
        </mxCell>
        <mxCell id="LQXSZ3eL3IMsYw5GJXrv-12" value="Pet Clinic Graphana" style="text;html=1;strokeColor=none;fillColor=none;align=center;verticalAlign=middle;whiteSpace=wrap;rounded=0;" vertex="1" parent="1">
          <mxGeometry x="371" y="431" width="60" height="30" as="geometry" />
        </mxCell>
        <mxCell id="LQXSZ3eL3IMsYw5GJXrv-13" value="" style="aspect=fixed;sketch=0;html=1;dashed=0;whitespace=wrap;fillColor=#2875E2;strokeColor=#ffffff;points=[[0.005,0.63,0],[0.1,0.2,0],[0.9,0.2,0],[0.5,0,0],[0.995,0.63,0],[0.72,0.99,0],[0.5,1,0],[0.28,0.99,0]];shape=mxgraph.kubernetes.icon2;kubernetesLabel=1;prIcon=pod" vertex="1" parent="1">
          <mxGeometry x="376" y="487" width="50" height="48" as="geometry" />
        </mxCell>
        <mxCell id="LQXSZ3eL3IMsYw5GJXrv-14" value="Pet Clinic Admin Server" style="text;html=1;strokeColor=none;fillColor=none;align=center;verticalAlign=middle;whiteSpace=wrap;rounded=0;" vertex="1" parent="1">
          <mxGeometry x="361.5" y="533" width="79" height="27" as="geometry" />
        </mxCell>
        <mxCell id="LQXSZ3eL3IMsYw5GJXrv-15" value="" style="endArrow=classic;html=1;rounded=0;entryX=0.005;entryY=0.63;entryDx=0;entryDy=0;entryPerimeter=0;exitX=1;exitY=0.52;exitDx=0;exitDy=0;exitPerimeter=0;" edge="1" parent="1" source="LQXSZ3eL3IMsYw5GJXrv-2" target="LQXSZ3eL3IMsYw5GJXrv-6">
          <mxGeometry width="50" height="50" relative="1" as="geometry">
            <mxPoint x="280" y="210" as="sourcePoint" />
            <mxPoint x="340" y="220" as="targetPoint" />
          </mxGeometry>
        </mxCell>
        <mxCell id="LQXSZ3eL3IMsYw5GJXrv-16" value="" style="endArrow=classic;html=1;rounded=0;exitX=1;exitY=0.5;exitDx=0;exitDy=0;exitPerimeter=0;entryX=0.005;entryY=0.63;entryDx=0;entryDy=0;entryPerimeter=0;" edge="1" parent="1" source="LQXSZ3eL3IMsYw5GJXrv-2" target="LQXSZ3eL3IMsYw5GJXrv-9">
          <mxGeometry width="50" height="50" relative="1" as="geometry">
            <mxPoint x="283" y="297" as="sourcePoint" />
            <mxPoint x="386" y="220" as="targetPoint" />
          </mxGeometry>
        </mxCell>
        <mxCell id="LQXSZ3eL3IMsYw5GJXrv-17" value="" style="endArrow=classic;html=1;rounded=0;exitX=1.02;exitY=0.5;exitDx=0;exitDy=0;exitPerimeter=0;entryX=0.005;entryY=0.63;entryDx=0;entryDy=0;entryPerimeter=0;" edge="1" parent="1" source="LQXSZ3eL3IMsYw5GJXrv-2" target="LQXSZ3eL3IMsYw5GJXrv-11">
          <mxGeometry width="50" height="50" relative="1" as="geometry">
            <mxPoint x="400" y="410" as="sourcePoint" />
            <mxPoint x="290" y="350" as="targetPoint" />
          </mxGeometry>
        </mxCell>
        <mxCell id="LQXSZ3eL3IMsYw5GJXrv-18" value="" style="endArrow=classic;html=1;rounded=0;entryX=0.005;entryY=0.63;entryDx=0;entryDy=0;entryPerimeter=0;exitX=1;exitY=0.48;exitDx=0;exitDy=0;exitPerimeter=0;" edge="1" parent="1" source="LQXSZ3eL3IMsYw5GJXrv-2" target="LQXSZ3eL3IMsYw5GJXrv-13">
          <mxGeometry width="50" height="50" relative="1" as="geometry">
            <mxPoint x="230" y="450" as="sourcePoint" />
            <mxPoint x="280" y="400" as="targetPoint" />
          </mxGeometry>
        </mxCell>
        <mxCell id="LQXSZ3eL3IMsYw5GJXrv-19" value="" style="aspect=fixed;sketch=0;html=1;dashed=0;whitespace=wrap;fillColor=#2875E2;strokeColor=#ffffff;points=[[0.005,0.63,0],[0.1,0.2,0],[0.9,0.2,0],[0.5,0,0],[0.995,0.63,0],[0.72,0.99,0],[0.5,1,0],[0.28,0.99,0]];shape=mxgraph.kubernetes.icon2;kubernetesLabel=1;prIcon=pod" vertex="1" parent="1">
          <mxGeometry x="695" y="270" width="50" height="48" as="geometry" />
        </mxCell>
        <mxCell id="LQXSZ3eL3IMsYw5GJXrv-20" value="Pet Clinic Customers Svc" style="text;html=1;strokeColor=none;fillColor=none;align=center;verticalAlign=middle;whiteSpace=wrap;rounded=0;" vertex="1" parent="1">
          <mxGeometry x="677" y="316" width="86" height="34" as="geometry" />
        </mxCell>
        <mxCell id="LQXSZ3eL3IMsYw5GJXrv-21" value="" style="aspect=fixed;sketch=0;html=1;dashed=0;whitespace=wrap;fillColor=#2875E2;strokeColor=#ffffff;points=[[0.005,0.63,0],[0.1,0.2,0],[0.9,0.2,0],[0.5,0,0],[0.995,0.63,0],[0.72,0.99,0],[0.5,1,0],[0.28,0.99,0]];shape=mxgraph.kubernetes.icon2;kubernetesLabel=1;prIcon=pod" vertex="1" parent="1">
          <mxGeometry x="695" y="354" width="50" height="48" as="geometry" />
        </mxCell>
        <mxCell id="LQXSZ3eL3IMsYw5GJXrv-22" value="Pet Clinic Vets Svc" style="text;html=1;strokeColor=none;fillColor=none;align=center;verticalAlign=middle;whiteSpace=wrap;rounded=0;" vertex="1" parent="1">
          <mxGeometry x="677" y="400" width="86" height="34" as="geometry" />
        </mxCell>
        <mxCell id="LQXSZ3eL3IMsYw5GJXrv-23" value="" style="aspect=fixed;sketch=0;html=1;dashed=0;whitespace=wrap;fillColor=#2875E2;strokeColor=#ffffff;points=[[0.005,0.63,0],[0.1,0.2,0],[0.9,0.2,0],[0.5,0,0],[0.995,0.63,0],[0.72,0.99,0],[0.5,1,0],[0.28,0.99,0]];shape=mxgraph.kubernetes.icon2;kubernetesLabel=1;prIcon=pod" vertex="1" parent="1">
          <mxGeometry x="695" y="440" width="50" height="48" as="geometry" />
        </mxCell>
        <mxCell id="LQXSZ3eL3IMsYw5GJXrv-24" value="Pet Clinic Visits Svc" style="text;html=1;strokeColor=none;fillColor=none;align=center;verticalAlign=middle;whiteSpace=wrap;rounded=0;" vertex="1" parent="1">
          <mxGeometry x="677" y="486" width="86" height="34" as="geometry" />
        </mxCell>
        <mxCell id="LQXSZ3eL3IMsYw5GJXrv-25" value="" style="endArrow=classic;html=1;rounded=0;entryX=0.005;entryY=0.63;entryDx=0;entryDy=0;entryPerimeter=0;exitX=0.995;exitY=0.63;exitDx=0;exitDy=0;exitPerimeter=0;" edge="1" parent="1" source="LQXSZ3eL3IMsYw5GJXrv-9" target="LQXSZ3eL3IMsYw5GJXrv-19">
          <mxGeometry width="50" height="50" relative="1" as="geometry">
            <mxPoint x="440" y="306" as="sourcePoint" />
            <mxPoint x="490" y="256" as="targetPoint" />
          </mxGeometry>
        </mxCell>
        <mxCell id="LQXSZ3eL3IMsYw5GJXrv-27" value="" style="endArrow=classic;html=1;rounded=0;exitX=0.995;exitY=0.63;exitDx=0;exitDy=0;exitPerimeter=0;entryX=0.005;entryY=0.63;entryDx=0;entryDy=0;entryPerimeter=0;" edge="1" parent="1" source="LQXSZ3eL3IMsYw5GJXrv-9" target="LQXSZ3eL3IMsYw5GJXrv-21">
          <mxGeometry width="50" height="50" relative="1" as="geometry">
            <mxPoint x="460" y="400" as="sourcePoint" />
            <mxPoint x="510" y="350" as="targetPoint" />
          </mxGeometry>
        </mxCell>
        <mxCell id="LQXSZ3eL3IMsYw5GJXrv-28" value="" style="endArrow=classic;html=1;rounded=0;entryX=0.005;entryY=0.63;entryDx=0;entryDy=0;entryPerimeter=0;exitX=0.995;exitY=0.63;exitDx=0;exitDy=0;exitPerimeter=0;" edge="1" parent="1" source="LQXSZ3eL3IMsYw5GJXrv-9" target="LQXSZ3eL3IMsYw5GJXrv-23">
          <mxGeometry width="50" height="50" relative="1" as="geometry">
            <mxPoint x="470" y="470" as="sourcePoint" />
            <mxPoint x="520" y="420" as="targetPoint" />
          </mxGeometry>
        </mxCell>
        <mxCell id="LQXSZ3eL3IMsYw5GJXrv-29" value="" style="aspect=fixed;sketch=0;html=1;dashed=0;whitespace=wrap;fillColor=#2875E2;strokeColor=#ffffff;points=[[0.005,0.63,0],[0.1,0.2,0],[0.9,0.2,0],[0.5,0,0],[0.995,0.63,0],[0.72,0.99,0],[0.5,1,0],[0.28,0.99,0]];shape=mxgraph.kubernetes.icon2;kubernetesLabel=1;prIcon=pod" vertex="1" parent="1">
          <mxGeometry x="487" y="557" width="50" height="48" as="geometry" />
        </mxCell>
        <mxCell id="LQXSZ3eL3IMsYw5GJXrv-30" value="Pet Clinic Config Svc&lt;br&gt;&lt;font style=&quot;font-size: 10px;&quot;&gt;&amp;nbsp;- used by all Spring Boot svcs for config retrieval&lt;/font&gt;" style="text;html=1;strokeColor=none;fillColor=none;align=center;verticalAlign=middle;whiteSpace=wrap;rounded=0;" vertex="1" parent="1">
          <mxGeometry x="450.75" y="605" width="122.5" height="50" as="geometry" />
        </mxCell>
        <mxCell id="LQXSZ3eL3IMsYw5GJXrv-31" value="" style="endArrow=classic;html=1;rounded=0;entryX=0.486;entryY=0.014;entryDx=0;entryDy=0;entryPerimeter=0;exitX=0.005;exitY=0.63;exitDx=0;exitDy=0;exitPerimeter=0;" edge="1" parent="1" source="LQXSZ3eL3IMsYw5GJXrv-29" target="LQXSZ3eL3IMsYw5GJXrv-3">
          <mxGeometry width="50" height="50" relative="1" as="geometry">
            <mxPoint x="456" y="592" as="sourcePoint" />
            <mxPoint x="466" y="735" as="targetPoint" />
            <Array as="points">
              <mxPoint x="414" y="587" />
            </Array>
          </mxGeometry>
        </mxCell>
        <mxCell id="LQXSZ3eL3IMsYw5GJXrv-34" value="" style="aspect=fixed;sketch=0;html=1;dashed=0;whitespace=wrap;fillColor=#2875E2;strokeColor=#ffffff;points=[[0.005,0.63,0],[0.1,0.2,0],[0.9,0.2,0],[0.5,0,0],[0.995,0.63,0],[0.72,0.99,0],[0.5,1,0],[0.28,0.99,0]];shape=mxgraph.kubernetes.icon2;kubernetesLabel=1;prIcon=pod" vertex="1" parent="1">
          <mxGeometry x="495" y="386" width="50" height="48" as="geometry" />
        </mxCell>
        <mxCell id="LQXSZ3eL3IMsYw5GJXrv-35" value="Pet Clinic Prometheus&lt;br&gt;&amp;nbsp;&lt;font style=&quot;font-size: 10px;&quot;&gt;- collects metrics from all services&lt;/font&gt;" style="text;html=1;strokeColor=none;fillColor=none;align=center;verticalAlign=middle;whiteSpace=wrap;rounded=0;" vertex="1" parent="1">
          <mxGeometry x="468.5" y="452.5" width="103" height="23" as="geometry" />
        </mxCell>
        <mxCell id="LQXSZ3eL3IMsYw5GJXrv-36" value="" style="endArrow=classic;html=1;rounded=0;entryX=0.005;entryY=0.63;entryDx=0;entryDy=0;entryPerimeter=0;exitX=0.995;exitY=0.63;exitDx=0;exitDy=0;exitPerimeter=0;" edge="1" parent="1" source="LQXSZ3eL3IMsYw5GJXrv-11" target="LQXSZ3eL3IMsYw5GJXrv-34">
          <mxGeometry width="50" height="50" relative="1" as="geometry">
            <mxPoint x="430" y="390" as="sourcePoint" />
            <mxPoint x="480" y="340" as="targetPoint" />
          </mxGeometry>
        </mxCell>
        <mxCell id="LQXSZ3eL3IMsYw5GJXrv-4" value="" style="image;aspect=fixed;html=1;points=[];align=center;fontSize=12;image=img/lib/azure2/networking/Virtual_Networks.svg;imageBackground=none;fillStyle=solid;" vertex="1" parent="1">
          <mxGeometry x="766.88" y="75" width="50.25" height="30" as="geometry" />
        </mxCell>
        <mxCell id="LQXSZ3eL3IMsYw5GJXrv-45" value="petclinicdb" style="aspect=fixed;html=1;points=[];align=center;image;fontSize=12;image=img/lib/azure2/databases/Azure_Database_PostgreSQL_Server.svg;" vertex="1" parent="1">
          <mxGeometry x="1001.5" y="300.75" width="33.75" height="45" as="geometry" />
        </mxCell>
        <mxCell id="LQXSZ3eL3IMsYw5GJXrv-46" value="" style="endArrow=classic;html=1;rounded=0;exitX=0.995;exitY=0.63;exitDx=0;exitDy=0;exitPerimeter=0;entryX=0;entryY=0.5;entryDx=0;entryDy=0;" edge="1" parent="1" source="LQXSZ3eL3IMsYw5GJXrv-23" target="o04dppOLbAU1CwW2dDpO-1">
          <mxGeometry width="50" height="50" relative="1" as="geometry">
            <mxPoint x="880" y="500" as="sourcePoint" />
            <mxPoint x="930" y="450" as="targetPoint" />
            <Array as="points">
              <mxPoint x="840" y="470" />
              <mxPoint x="840" y="300" />
            </Array>
          </mxGeometry>
        </mxCell>
        <mxCell id="LQXSZ3eL3IMsYw5GJXrv-48" value="" style="endArrow=classic;html=1;rounded=0;exitX=0.995;exitY=0.63;exitDx=0;exitDy=0;exitPerimeter=0;entryX=0;entryY=0.5;entryDx=0;entryDy=0;" edge="1" parent="1" source="LQXSZ3eL3IMsYw5GJXrv-6" target="o04dppOLbAU1CwW2dDpO-1">
          <mxGeometry width="50" height="50" relative="1" as="geometry">
            <mxPoint x="880" y="500" as="sourcePoint" />
            <mxPoint x="930" y="450" as="targetPoint" />
            <Array as="points">
              <mxPoint x="780" y="210" />
              <mxPoint x="840" y="210" />
              <mxPoint x="840" y="300" />
            </Array>
          </mxGeometry>
        </mxCell>
        <mxCell id="LQXSZ3eL3IMsYw5GJXrv-52" value="&lt;i&gt;&lt;b&gt;&lt;font style=&quot;font-size: 16px;&quot;&gt;PostgreSQL Server Instance&lt;/font&gt;&lt;/b&gt;&lt;/i&gt;" style="text;html=1;strokeColor=none;fillColor=none;align=center;verticalAlign=middle;whiteSpace=wrap;rounded=0;" vertex="1" parent="1">
          <mxGeometry x="982.5" y="258" width="105" height="30" as="geometry" />
        </mxCell>
        <mxCell id="LQXSZ3eL3IMsYw5GJXrv-57" value="Namespace: pet-clinic" style="text;html=1;strokeColor=none;fillColor=none;align=center;verticalAlign=middle;whiteSpace=wrap;rounded=0;" vertex="1" parent="1">
          <mxGeometry x="467" y="255" width="153" height="25" as="geometry" />
        </mxCell>
        <mxCell id="LQXSZ3eL3IMsYw5GJXrv-58" value="Namespace: todo" style="text;html=1;strokeColor=none;fillColor=none;align=center;verticalAlign=middle;whiteSpace=wrap;rounded=0;" vertex="1" parent="1">
          <mxGeometry x="468.5" y="157" width="153" height="25" as="geometry" />
        </mxCell>
        <mxCell id="LQXSZ3eL3IMsYw5GJXrv-59" value="DB Connections w/ workload identities (no passwords)" style="text;html=1;strokeColor=none;fillColor=none;align=center;verticalAlign=middle;whiteSpace=wrap;rounded=0;fontSize=10;" vertex="1" parent="1">
          <mxGeometry x="840" y="253" width="90" height="48" as="geometry" />
        </mxCell>
        <mxCell id="LQXSZ3eL3IMsYw5GJXrv-60" value="" style="endArrow=classic;html=1;rounded=0;entryX=0;entryY=0.578;entryDx=0;entryDy=0;entryPerimeter=0;exitX=1;exitY=0.091;exitDx=0;exitDy=0;exitPerimeter=0;" edge="1" parent="1" source="LQXSZ3eL3IMsYw5GJXrv-38" target="0QP-IHk7IyoN1cNLL2Y5-4">
          <mxGeometry width="50" height="50" relative="1" as="geometry">
            <mxPoint x="850" y="170" as="sourcePoint" />
            <mxPoint x="900" y="120" as="targetPoint" />
          </mxGeometry>
        </mxCell>
        <mxCell id="LQXSZ3eL3IMsYw5GJXrv-62" value="KV Secrets integration via CSI driver&lt;br&gt;and workload identities" style="text;html=1;align=center;verticalAlign=middle;resizable=0;points=[];autosize=1;strokeColor=none;fillColor=none;fontSize=10;" vertex="1" parent="1">
          <mxGeometry x="810" y="122.71000000000001" width="190" height="40" as="geometry" />
        </mxCell>
        <mxCell id="LQXSZ3eL3IMsYw5GJXrv-64" value="Microsoft Entra" style="verticalLabelPosition=bottom;html=1;verticalAlign=top;align=center;strokeColor=none;fillColor=#00BEF2;shape=mxgraph.azure.azure_active_directory;" vertex="1" parent="1">
          <mxGeometry x="1023.5" y="570" width="63" height="70" as="geometry" />
        </mxCell>
        <mxCell id="LQXSZ3eL3IMsYw5GJXrv-65" value="Container Insights" style="image;aspect=fixed;html=1;points=[];align=center;fontSize=12;image=img/lib/azure2/devops/Application_Insights.svg;" vertex="1" parent="1">
          <mxGeometry x="874.8100000000001" y="576.75" width="39.46" height="56.5" as="geometry" />
        </mxCell>
      </root>
    </mxGraphModel>
  </diagram>
</mxfile>
